STARTFONT 2.1
FONT -Adobe-Utopia-Regular-I-Normal--19-140-100-100-P-104-ISO8859-2
SIZE 14 100 100
FONTBOUNDINGBOX 27 23 -3 -5
STARTPROPERTIES 29
FOUNDRY "Adobe"
FAMILY_NAME "Utopia"
WEIGHT_NAME "Regular"
SLANT "I"
SETWIDTH_NAME "Normal"
ADD_STYLE_NAME ""
PIXEL_SIZE 19
POINT_SIZE 140
RESOLUTION_X 100
RESOLUTION_Y 100
SPACING "P"
AVERAGE_WIDTH 104
CHARSET_REGISTRY "ISO8859"
CHARSET_ENCODING "2"
CAP_HEIGHT 13
X_HEIGHT 10
RELATIVE_SETWIDTH 50
RELATIVE_WEIGHT 50
WEIGHT 130
FACE_NAME "Utopia Italic"
COPYRIGHT "Copyright (c) 1989, 1991 Adobe Systems Incorporated.  All Rights Reserved., Copyright 1996 Cub Soft"
NOTICE "Utopia is a registered trademark of Adobe Systems Incorporated."
DESTINATION 0
FONT_ASCENT 18
FONT_DESCENT 5
DEFAULT_CHAR 32
_ADOBE_PSFONT "Utopia-Italic"
_ADOBE_XFONT "-Adobe-Utopia-Regular-I-Normal--19-140-100-100-P-104-ISO8859-2"
_DEC_DEVICE_FONTNAMES "PS=Utopia-Italic"
ENDPROPERTIES
CHARS 191
STARTCHAR space
ENCODING 32
SWIDTH 225 0
DWIDTH 4 0
BBX 0 0 0 0
BITMAP
ENDCHAR
STARTCHAR exclam
ENCODING 33
SWIDTH 240 0
DWIDTH 5 0
BBX 5 14 1 0
BITMAP
18
18
30
30
30
20
20
20
20
40
00
00
c0
c0
ENDCHAR
STARTCHAR quotedbl
ENCODING 34
SWIDTH 402 0
DWIDTH 8 0
BBX 6 5 4 9
BITMAP
4c
cc
c8
88
90
ENDCHAR
STARTCHAR numbersign
ENCODING 35
SWIDTH 530 0
DWIDTH 10 0
BBX 10 14 2 -1
BITMAP
0480
0880
0880
0900
7fc0
1100
1200
3200
ff80
2400
6400
4400
4800
8000
ENDCHAR
STARTCHAR dollar
ENCODING 36
SWIDTH 530 0
DWIDTH 10 0
BBX 11 16 1 -2
BITMAP
0100
0f80
1a60
3260
3200
3400
1c00
0e00
0700
0980
0980
c980
6b00
1c00
1000
1000
ENDCHAR
STARTCHAR percent
ENCODING 37
SWIDTH 826 0
DWIDTH 16 0
BBX 14 14 2 -1
BITMAP
3c08
67f0
4620
c620
c440
4c80
7978
02c8
048c
098c
1188
1098
20f0
4000
ENDCHAR
STARTCHAR ampersand
ENCODING 38
SWIDTH 725 0
DWIDTH 14 0
BBX 13 13 2 0
BITMAP
0e00
1180
3180
3100
3610
1838
3c30
4e20
c740
c380
c1c0
42e0
3c30
ENDCHAR
STARTCHAR apostrophe
ENCODING 39
SWIDTH 216 0
DWIDTH 4 0
BBX 3 5 3 9
BITMAP
60
60
60
40
80
ENDCHAR
STARTCHAR parenleft
ENCODING 40
SWIDTH 350 0
DWIDTH 7 0
BBX 6 16 3 -2
BITMAP
04
18
30
20
60
40
40
c0
80
80
80
80
80
80
40
60
ENDCHAR
STARTCHAR parenright
ENCODING 41
SWIDTH 350 0
DWIDTH 7 0
BBX 6 17 0 -3
BITMAP
10
08
08
04
04
04
04
04
04
0c
08
08
18
10
30
60
80
ENDCHAR
STARTCHAR asterisk
ENCODING 42
SWIDTH 412 0
DWIDTH 8 0
BBX 7 7 3 7
BITMAP
18
52
7e
10
fc
94
30
ENDCHAR
STARTCHAR plus
ENCODING 43
SWIDTH 570 0
DWIDTH 11 0
BBX 9 10 2 0
BITMAP
0800
0800
0800
0800
0800
ff80
0800
0800
0800
0800
ENDCHAR
STARTCHAR comma
ENCODING 44
SWIDTH 265 0
DWIDTH 5 0
BBX 3 5 1 -2
BITMAP
60
60
60
40
80
ENDCHAR
STARTCHAR minus
ENCODING 45
SWIDTH 570 0
DWIDTH 11 0
BBX 9 1 2 4
BITMAP
ff80
ENDCHAR
STARTCHAR period
ENCODING 46
SWIDTH 265 0
DWIDTH 5 0
BBX 2 2 2 0
BITMAP
c0
c0
ENDCHAR
STARTCHAR slash
ENCODING 47
SWIDTH 270 0
DWIDTH 5 0
BBX 7 14 0 0
BITMAP
06
04
04
0c
08
18
10
10
30
20
60
40
40
c0
ENDCHAR
STARTCHAR zero
ENCODING 48
SWIDTH 530 0
DWIDTH 10 0
BBX 9 13 2 0
BITMAP
0e00
1100
3180
6180
6180
6180
c180
c300
c300
c300
c600
4400
3800
ENDCHAR
STARTCHAR one
ENCODING 49
SWIDTH 530 0
DWIDTH 10 0
BBX 7 13 2 0
BITMAP
06
1e
04
0c
0c
0c
08
08
18
18
18
10
fc
ENDCHAR
STARTCHAR two
ENCODING 50
SWIDTH 530 0
DWIDTH 10 0
BBX 10 13 1 0
BITMAP
0f00
1880
30c0
30c0
00c0
0180
0300
0400
1800
2000
4080
ff00
ff00
ENDCHAR
STARTCHAR three
ENCODING 51
SWIDTH 530 0
DWIDTH 10 0
BBX 10 13 1 0
BITMAP
0f00
18c0
10c0
00c0
0380
1c00
0300
0180
0180
4180
c100
4300
3c00
ENDCHAR
STARTCHAR four
ENCODING 52
SWIDTH 530 0
DWIDTH 10 0
BBX 9 13 1 0
BITMAP
0080
0180
0380
0580
0900
1300
2300
4300
ff80
0200
0600
0600
1f00
ENDCHAR
STARTCHAR five
ENCODING 53
SWIDTH 530 0
DWIDTH 10 0
BBX 10 13 1 0
BITMAP
1fc0
1f80
1000
1000
1000
2e00
3300
0180
0180
0180
c100
6300
3c00
ENDCHAR
STARTCHAR six
ENCODING 54
SWIDTH 530 0
DWIDTH 10 0
BBX 10 13 2 0
BITMAP
0700
1880
30c0
2000
6000
7e00
6300
c180
c180
c180
c300
6300
3c00
ENDCHAR
STARTCHAR seven
ENCODING 55
SWIDTH 530 0
DWIDTH 10 0
BBX 9 13 3 0
BITMAP
7f80
ff80
8100
0300
0600
0c00
0800
1000
2000
6000
6000
c000
4000
ENDCHAR
STARTCHAR eight
ENCODING 56
SWIDTH 530 0
DWIDTH 10 0
BBX 9 13 2 0
BITMAP
1e00
3100
6180
6180
2300
3c00
6600
4300
c300
c300
c200
6600
3c00
ENDCHAR
STARTCHAR nine
ENCODING 57
SWIDTH 530 0
DWIDTH 10 0
BBX 10 13 1 0
BITMAP
0f00
3180
2080
60c0
60c0
60c0
31c0
1e80
0180
0180
c300
e600
3c00
ENDCHAR
STARTCHAR colon
ENCODING 58
SWIDTH 265 0
DWIDTH 5 0
BBX 4 10 2 0
BITMAP
30
30
20
00
00
00
00
40
c0
c0
ENDCHAR
STARTCHAR semicolon
ENCODING 59
SWIDTH 265 0
DWIDTH 5 0
BBX 5 12 1 -2
BITMAP
18
38
00
00
00
00
40
60
60
40
80
80
ENDCHAR
STARTCHAR less
ENCODING 60
SWIDTH 570 0
DWIDTH 11 0
BBX 9 10 2 0
BITMAP
0080
0380
0f00
3800
e000
8000
7000
1c00
0700
0080
ENDCHAR
STARTCHAR equal
ENCODING 61
SWIDTH 570 0
DWIDTH 11 0
BBX 9 5 2 2
BITMAP
ff80
0000
0000
0000
ff80
ENDCHAR
STARTCHAR greater
ENCODING 62
SWIDTH 570 0
DWIDTH 11 0
BBX 9 10 2 0
BITMAP
8000
e000
7800
0e00
0380
0080
0700
1c00
7000
8000
ENDCHAR
STARTCHAR question
ENCODING 63
SWIDTH 425 0
DWIDTH 8 0
BBX 7 14 3 0
BITMAP
38
66
c6
06
0c
18
20
c0
c0
70
00
00
e0
c0
ENDCHAR
STARTCHAR at
ENCODING 64
SWIDTH 794 0
DWIDTH 15 0
BBX 14 14 2 0
BITMAP
03e0
0c10
3808
30e4
6324
4624
c644
c444
ccc8
cd48
4670
6000
3820
07c0
ENDCHAR
STARTCHAR A
ENCODING 65
SWIDTH 624 0
DWIDTH 12 0
BBX 13 14 0 0
BITMAP
00c0
00c0
0140
0140
0260
0260
0460
0460
0fe0
0860
1020
1020
2030
f0f8
ENDCHAR
STARTCHAR B
ENCODING 66
SWIDTH 632 0
DWIDTH 12 0
BBX 12 14 1 0
BITMAP
1fc0
0c60
0c30
0c30
0830
08e0
1f00
18c0
1860
1060
3060
3060
30c0
ff00
ENDCHAR
STARTCHAR C
ENCODING 67
SWIDTH 661 0
DWIDTH 13 0
BBX 13 14 2 0
BITMAP
07e0
1c38
3010
6010
6000
6000
c000
c000
c000
c000
c020
6040
30c0
0f00
ENDCHAR
STARTCHAR D
ENCODING 68
SWIDTH 763 0
DWIDTH 15 0
BBX 15 14 1 0
BITMAP
1fe0
0618
040c
0c06
0c06
0c06
0806
1806
180c
180c
181c
3018
3060
ff80
ENDCHAR
STARTCHAR E
ENCODING 69
SWIDTH 596 0
DWIDTH 12 0
BBX 13 14 1 0
BITMAP
3ff8
0c10
0c10
0c10
1800
1820
1860
1fc0
1840
3800
3000
3020
3060
ffc0
ENDCHAR
STARTCHAR F
ENCODING 70
SWIDTH 571 0
DWIDTH 11 0
BBX 13 14 1 0
BITMAP
3ff8
0c10
0c10
0c10
1800
1820
1860
1fc0
1840
3800
3000
3000
3000
fc00
ENDCHAR
STARTCHAR G
ENCODING 71
SWIDTH 709 0
DWIDTH 14 0
BBX 13 14 2 0
BITMAP
03e0
0c38
3010
7010
6000
6000
c000
c000
c0f8
c030
c020
6060
3060
0f80
ENDCHAR
STARTCHAR H
ENCODING 72
SWIDTH 775 0
DWIDTH 15 0
BBX 17 14 1 0
BITMAP
1f1f80
060600
0c0600
0c0400
0c0c00
0c0c00
180c00
1ffc00
180800
181800
181800
301800
303000
fc7c00
ENDCHAR
STARTCHAR I
ENCODING 73
SWIDTH 345 0
DWIDTH 7 0
BBX 8 14 1 0
BITMAP
1f
0c
0c
0c
08
18
18
18
18
10
30
30
30
f8
ENDCHAR
STARTCHAR J
ENCODING 74
SWIDTH 352 0
DWIDTH 7 0
BBX 10 17 -1 -3
BITMAP
07c0
0300
0300
0300
0200
0600
0600
0600
0400
0c00
0c00
0c00
0c00
1800
1800
3000
e000
ENDCHAR
STARTCHAR K
ENCODING 75
SWIDTH 650 0
DWIDTH 13 0
BBX 15 14 1 0
BITMAP
1f3e
0c18
0c20
0c40
0980
0a00
1e00
1e00
1b00
1380
3180
30c0
3060
f830
ENDCHAR
STARTCHAR L
ENCODING 76
SWIDTH 565 0
DWIDTH 11 0
BBX 11 14 1 0
BITMAP
1f00
0c00
0c00
0c00
0c00
0800
1800
1800
1800
1000
3020
3020
3040
ffc0
ENDCHAR
STARTCHAR M
ENCODING 77
SWIDTH 920 0
DWIDTH 18 0
BBX 19 14 1 0
BITMAP
3c01e0
0e0180
0e0380
0e0580
160580
130900
130b00
131300
132300
232300
21c600
218600
618600
f11f00
ENDCHAR
STARTCHAR N
ENCODING 78
SWIDTH 763 0
DWIDTH 15 0
BBX 16 14 1 0
BITMAP
3c0f
0e06
0e04
0b04
1304
1184
1188
10c8
20c8
20e8
2070
2070
6030
f030
ENDCHAR
STARTCHAR O
ENCODING 79
SWIDTH 753 0
DWIDTH 15 0
BBX 13 14 2 0
BITMAP
07c0
1820
3030
7018
6018
6018
c018
c018
c030
c030
c030
6060
30c0
1f00
ENDCHAR
STARTCHAR P
ENCODING 80
SWIDTH 614 0
DWIDTH 12 0
BBX 12 14 1 0
BITMAP
3fc0
0c60
0c30
0c30
1830
1830
1860
18c0
3f80
3800
3000
3000
3000
fc00
ENDCHAR
STARTCHAR Q
ENCODING 81
SWIDTH 753 0
DWIDTH 15 0
BBX 13 18 2 -4
BITMAP
07c0
1820
3030
7018
6018
6018
c018
c018
c030
c030
c030
6060
30c0
1f00
0600
0300
0180
00e0
ENDCHAR
STARTCHAR R
ENCODING 82
SWIDTH 640 0
DWIDTH 12 0
BBX 12 14 1 0
BITMAP
1fc0
0c60
0c30
0c30
0830
0860
18c0
1f80
18c0
18c0
30c0
30c0
30c0
f870
ENDCHAR
STARTCHAR S
ENCODING 83
SWIDTH 533 0
DWIDTH 10 0
BBX 9 14 2 0
BITMAP
1e00
3180
6100
6100
6000
3000
1c00
0e00
0700
8300
8300
8200
c600
3800
ENDCHAR
STARTCHAR T
ENCODING 84
SWIDTH 606 0
DWIDTH 12 0
BBX 12 14 3 0
BITMAP
fff0
8420
8c20
0c00
0c00
0c00
1800
1800
1800
1800
1000
3000
3000
fc00
ENDCHAR
STARTCHAR U
ENCODING 85
SWIDTH 794 0
DWIDTH 15 0
BBX 15 14 3 0
BITMAP
fc7e
3018
3010
6030
6030
6030
6020
4060
c060
c060
c0c0
c0c0
6180
3e00
ENDCHAR
STARTCHAR V
ENCODING 86
SWIDTH 637 0
DWIDTH 12 0
BBX 13 14 3 0
BITMAP
f878
6020
2060
2040
3080
3080
3100
3100
3200
3200
1400
1400
1800
1000
ENDCHAR
STARTCHAR W
ENCODING 87
SWIDTH 946 0
DWIDTH 18 0
BBX 19 14 2 0
BITMAP
fc01e0
702080
306080
30e100
30e100
316200
316200
326400
326400
342400
342800
382800
303000
303000
ENDCHAR
STARTCHAR X
ENCODING 88
SWIDTH 632 0
DWIDTH 12 0
BBX 15 14 0 0
BITMAP
1f3e
0e18
0610
0620
0340
0380
0180
0380
0280
04c0
08c0
1060
3060
f8f8
ENDCHAR
STARTCHAR Y
ENCODING 89
SWIDTH 591 0
DWIDTH 11 0
BBX 13 14 2 0
BITMAP
f878
3020
3060
3040
1880
1900
1a00
0e00
0c00
0c00
1800
1800
1800
7e00
ENDCHAR
STARTCHAR Z
ENCODING 90
SWIDTH 622 0
DWIDTH 12 0
BBX 14 14 0 0
BITMAP
0ffc
081c
0838
1070
00e0
01c0
0380
0700
0600
0c00
1810
3010
6020
ffe0
ENDCHAR
STARTCHAR bracketleft
ENCODING 91
SWIDTH 330 0
DWIDTH 6 0
BBX 7 17 2 -3
BITMAP
0e
18
18
10
10
10
30
20
20
20
20
60
40
40
40
c0
e0
ENDCHAR
STARTCHAR backslash
ENCODING 92
SWIDTH 390 0
DWIDTH 8 0
BBX 5 14 3 0
BITMAP
80
c0
40
40
40
60
20
20
30
10
10
10
18
08
ENDCHAR
STARTCHAR bracketright
ENCODING 93
SWIDTH 330 0
DWIDTH 6 0
BBX 7 17 0 -3
BITMAP
0e
06
04
04
04
0c
08
08
08
08
18
10
10
10
30
30
e0
ENDCHAR
STARTCHAR asciicircum
ENCODING 94
SWIDTH 570 0
DWIDTH 11 0
BBX 9 9 2 4
BITMAP
0800
1c00
1400
3600
2200
2200
6300
4100
c180
ENDCHAR
STARTCHAR underscore
ENCODING 95
SWIDTH 500 0
DWIDTH 10 0
BBX 10 1 0 -2
BITMAP
ffc0
ENDCHAR
STARTCHAR grave
ENCODING 96
SWIDTH 400 0
DWIDTH 8 0
BBX 4 4 4 10
BITMAP
80
c0
20
10
ENDCHAR
STARTCHAR a
ENCODING 97
SWIDTH 561 0
DWIDTH 11 0
BBX 10 10 1 0
BITMAP
07c0
18c0
3080
6180
6180
c380
c300
c740
cb40
7380
ENDCHAR
STARTCHAR b
ENCODING 98
SWIDTH 559 0
DWIDTH 11 0
BBX 10 14 2 0
BITMAP
1800
7800
1000
1000
3380
34c0
28c0
30c0
60c0
6180
6180
4300
e600
bc00
ENDCHAR
STARTCHAR c
ENCODING 99
SWIDTH 441 0
DWIDTH 9 0
BBX 8 10 2 0
BITMAP
0e
33
63
60
c0
c0
c0
c2
c4
78
ENDCHAR
STARTCHAR d
ENCODING 100
SWIDTH 587 0
DWIDTH 11 0
BBX 12 14 1 0
BITMAP
0030
00f0
0020
0060
07e0
1c60
3040
60c0
60c0
c1c0
c280
c3a0
cda0
71c0
ENDCHAR
STARTCHAR e
ENCODING 101
SWIDTH 453 0
DWIDTH 9 0
BBX 8 10 2 0
BITMAP
0e
13
23
62
cc
f0
c0
c2
c4
78
ENDCHAR
STARTCHAR f
ENCODING 102
SWIDTH 315 0
DWIDTH 6 0
BBX 12 19 -1 -5
BITMAP
00e0
0130
0300
0300
0fc0
0600
0600
0600
0400
0c00
0c00
0c00
0c00
0800
0800
1800
1000
d000
6000
ENDCHAR
STARTCHAR g
ENCODING 103
SWIDTH 499 0
DWIDTH 10 0
BBX 12 15 0 -5
BITMAP
0f30
18e0
30c0
30c0
30c0
1180
0f00
1000
3c00
1f80
61c0
c0c0
c0c0
6180
3e00
ENDCHAR
STARTCHAR h
ENCODING 104
SWIDTH 607 0
DWIDTH 12 0
BBX 10 14 2 0
BITMAP
0800
3800
1800
1000
3380
34c0
38c0
2880
3180
6180
6100
6340
4340
c380
ENDCHAR
STARTCHAR i
ENCODING 105
SWIDTH 317 0
DWIDTH 6 0
BBX 5 14 2 0
BITMAP
18
18
00
00
30
f0
30
20
60
60
40
c8
d0
e0
ENDCHAR
STARTCHAR j
ENCODING 106
SWIDTH 309 0
DWIDTH 6 0
BBX 8 19 -1 -5
BITMAP
03
03
02
00
02
0e
06
06
06
04
04
0c
0c
0c
08
18
18
d0
60
ENDCHAR
STARTCHAR k
ENCODING 107
SWIDTH 545 0
DWIDTH 11 0
BBX 10 14 2 0
BITMAP
0800
3800
1800
1000
30c0
3380
3400
2800
6800
7800
6c00
4c80
c680
c700
ENDCHAR
STARTCHAR l
ENCODING 108
SWIDTH 306 0
DWIDTH 6 0
BBX 5 14 2 0
BITMAP
18
78
18
10
30
30
20
20
60
60
40
c8
d0
e0
ENDCHAR
STARTCHAR m
ENCODING 109
SWIDTH 912 0
DWIDTH 18 0
BBX 16 10 2 0
BITMAP
1b8c
74d6
38e6
38c6
30c4
2184
618c
618d
410d
c30e
ENDCHAR
STARTCHAR n
ENCODING 110
SWIDTH 618 0
DWIDTH 12 0
BBX 10 10 2 0
BITMAP
1380
74c0
38c0
2880
3180
6180
6100
6340
4340
c380
ENDCHAR
STARTCHAR o
ENCODING 111
SWIDTH 537 0
DWIDTH 10 0
BBX 9 10 2 0
BITMAP
0e00
3100
6180
6180
e180
c380
c300
c300
4600
3800
ENDCHAR
STARTCHAR p
ENCODING 112
SWIDTH 590 0
DWIDTH 11 0
BBX 11 15 1 -5
BITMAP
19c0
7a60
1460
1860
3060
30c0
30c0
2180
6300
7e00
6000
4000
4000
c000
c000
ENDCHAR
STARTCHAR q
ENCODING 113
SWIDTH 559 0
DWIDTH 11 0
BBX 10 15 1 -5
BITMAP
0740
18c0
30c0
6080
6180
c180
c380
c500
cb00
7300
0300
0200
0200
0600
0400
ENDCHAR
STARTCHAR r
ENCODING 114
SWIDTH 402 0
DWIDTH 8 0
BBX 7 10 2 0
BITMAP
32
ee
30
30
60
60
40
40
c0
80
ENDCHAR
STARTCHAR s
ENCODING 115
SWIDTH 389 0
DWIDTH 8 0
BBX 8 10 1 0
BITMAP
1e
23
21
30
18
1c
06
c6
44
38
ENDCHAR
STARTCHAR t
ENCODING 116
SWIDTH 341 0
DWIDTH 7 0
BBX 6 13 2 0
BITMAP
08
10
30
fc
30
20
60
60
60
40
c8
d0
e0
ENDCHAR
STARTCHAR u
ENCODING 117
SWIDTH 618 0
DWIDTH 12 0
BBX 11 10 2 0
BITMAP
3040
f0c0
2080
6180
6180
6380
4300
c720
cb40
f380
ENDCHAR
STARTCHAR v
ENCODING 118
SWIDTH 510 0
DWIDTH 10 0
BBX 9 10 2 0
BITMAP
3080
e180
6180
6100
6100
4200
4200
c400
d800
6000
ENDCHAR
STARTCHAR w
ENCODING 119
SWIDTH 785 0
DWIDTH 15 0
BBX 15 10 2 0
BITMAP
30c4
e186
2186
6184
6184
4308
4708
c710
db20
61c0
ENDCHAR
STARTCHAR x
ENCODING 120
SWIDTH 516 0
DWIDTH 10 0
BBX 10 10 1 0
BITMAP
18c0
79c0
0a00
0a00
0c00
0c00
1400
1640
e680
c300
ENDCHAR
STARTCHAR y
ENCODING 121
SWIDTH 468 0
DWIDTH 9 0
BBX 11 15 0 -5
BITMAP
1820
7860
1860
0840
08c0
0c80
0d00
0d00
0e00
0e00
0c00
0800
0800
d000
e000
ENDCHAR
STARTCHAR z
ENCODING 122
SWIDTH 468 0
DWIDTH 9 0
BBX 9 10 1 0
BITMAP
3f80
4300
4600
0400
0c00
1800
3080
6100
ff00
9e00
ENDCHAR
STARTCHAR braceleft
ENCODING 123
SWIDTH 340 0
DWIDTH 7 0
BBX 5 17 3 -3
BITMAP
18
10
20
20
20
20
20
40
c0
40
40
40
c0
80
80
80
40
ENDCHAR
STARTCHAR bar
ENCODING 124
SWIDTH 270 0
DWIDTH 5 0
BBX 1 14 3 0
BITMAP
80
80
80
80
80
80
80
80
80
80
80
80
80
80
ENDCHAR
STARTCHAR braceright
ENCODING 125
SWIDTH 340 0
DWIDTH 7 0
BBX 5 17 1 -3
BITMAP
10
08
08
08
18
10
10
10
08
10
20
20
20
20
20
40
c0
ENDCHAR
STARTCHAR asciitilde
ENCODING 126
SWIDTH 570 0
DWIDTH 11 0
BBX 8 3 3 3
BITMAP
21
7e
84
ENDCHAR
STARTCHAR nobreakspace
ENCODING 160
SWIDTH 225 0
DWIDTH 4 0
BBX 0 0 0 0
BITMAP
ENDCHAR
STARTCHAR Aogonek
ENCODING 161
SWIDTH 624 0
DWIDTH 12 0
BBX 13 18 0 -4
BITMAP
00c0
00c0
0140
0140
0260
0260
0460
0460
0fe0
0860
1020
1020
2030
f0f8
0200
0400
0400
0700
ENDCHAR
STARTCHAR breve
ENCODING 162
SWIDTH 400 0
DWIDTH 8 0
BBX 6 3 5 11
BITMAP
84
88
70
ENDCHAR
STARTCHAR Lstroke
ENCODING 163
SWIDTH 571 0
DWIDTH 11 0
BBX 11 14 1 0
BITMAP
1f00
0c00
0c00
0c00
0d00
0b00
1c00
1800
7800
9800
3020
3020
3040
ffc0
ENDCHAR
STARTCHAR currency
ENCODING 164
SWIDTH 530 0
DWIDTH 10 0
BBX 9 9 2 2
BITMAP
be80
6300
c180
8080
8080
8080
c180
6300
be80
ENDCHAR
STARTCHAR Lcaron
ENCODING 165
SWIDTH 617 0
DWIDTH 12 0
BBX 12 15 1 0
BITMAP
0030
1f30
0c30
0c20
0c40
0c00
0800
1800
1800
1800
1000
3020
3020
3040
ffc0
ENDCHAR
STARTCHAR Sacute
ENCODING 166
SWIDTH 533 0
DWIDTH 10 0
BBX 9 19 2 0
BITMAP
0080
0180
0200
0400
0000
1e00
3180
6100
6100
6000
3000
1c00
0e00
0700
8300
8300
8200
c600
3800
ENDCHAR
STARTCHAR section
ENCODING 167
SWIDTH 530 0
DWIDTH 10 0
BBX 10 16 1 -2
BITMAP
0780
04c0
0840
1800
2c00
4700
4380
60c0
3040
3840
0c40
0680
0300
c200
4400
3800
ENDCHAR
STARTCHAR diaeresis
ENCODING 168
SWIDTH 400 0
DWIDTH 8 0
BBX 6 2 4 11
BITMAP
cc
cc
ENDCHAR
STARTCHAR Scaron
ENCODING 169
SWIDTH 533 0
DWIDTH 10 0
BBX 9 18 2 0
BITMAP
1080
0f00
0400
0000
1e00
3180
6100
6100
6000
3000
1c00
0e00
0700
8300
8300
8200
c600
3800
ENDCHAR
STARTCHAR Scedilla
ENCODING 170
SWIDTH 533 0
DWIDTH 10 0
BBX 9 20 2 -6
BITMAP
1e00
3180
6100
6100
6000
3000
1c00
0e00
0700
8300
8300
8200
c600
3800
0400
0800
0c00
0400
0c00
1800
ENDCHAR
STARTCHAR Tcaron
ENCODING 171
SWIDTH 606 0
DWIDTH 12 0
BBX 12 18 3 0
BITMAP
0840
0780
0200
0000
fff0
8420
8c20
0c00
0c00
0c00
1800
1800
1800
1800
1000
3000
3000
fc00
ENDCHAR
STARTCHAR Zacute
ENCODING 172
SWIDTH 622 0
DWIDTH 12 0
BBX 14 19 0 0
BITMAP
0008
0018
0020
0040
0000
0ffc
081c
0838
1070
00e0
01c0
0380
0700
0600
0c00
1810
3010
6020
ffe0
ENDCHAR
STARTCHAR hyphen
ENCODING 173
SWIDTH 392 0
DWIDTH 8 0
BBX 5 1 2 4
BITMAP
f8
ENDCHAR
STARTCHAR Zcaron
ENCODING 174
SWIDTH 622 0
DWIDTH 12 0
BBX 14 18 0 0
BITMAP
0108
00f0
0040
0000
0ffc
081c
0838
1070
00e0
01c0
0380
0700
0600
0c00
1810
3010
6020
ffe0
ENDCHAR
STARTCHAR Zabovedot
ENCODING 175
SWIDTH 622 0
DWIDTH 12 0
BBX 14 17 0 0
BITMAP
0060
0060
0000
0ffc
081c
0838
1070
00e0
01c0
0380
0700
0600
0c00
1810
3010
6020
ffe0
ENDCHAR
STARTCHAR degree
ENCODING 176
SWIDTH 400 0
DWIDTH 8 0
BBX 5 5 4 8
BITMAP
70
88
88
88
70
ENDCHAR
STARTCHAR aogonek
ENCODING 177
SWIDTH 561 0
DWIDTH 11 0
BBX 10 14 1 -4
BITMAP
07c0
18c0
3080
6180
6180
c380
c300
c740
cb40
7380
0800
1000
1000
1c00
ENDCHAR
STARTCHAR ogonek
ENCODING 178
SWIDTH 350 0
DWIDTH 7 0
BBX 3 4 2 -4
BITMAP
40
80
80
e0
ENDCHAR
STARTCHAR lstroke
ENCODING 179
SWIDTH 318 0
DWIDTH 6 0
BBX 7 14 1 0
BITMAP
0c
3c
0c
08
18
1e
18
70
b0
30
20
64
68
70
ENDCHAR
STARTCHAR acute
ENCODING 180
SWIDTH 400 0
DWIDTH 8 0
BBX 4 4 5 10
BITMAP
10
30
40
80
ENDCHAR
STARTCHAR lcaron
ENCODING 181
SWIDTH 514 0
DWIDTH 10 0
BBX 9 15 2 0
BITMAP
0180
1980
7980
1900
1200
3000
3000
2000
2000
6000
6000
4000
c800
d000
e000
ENDCHAR
STARTCHAR sacute
ENCODING 182
SWIDTH 389 0
DWIDTH 8 0
BBX 9 15 1 0
BITMAP
0080
0180
0200
0400
0000
1e00
2300
2100
3000
1800
1c00
0600
c600
4400
3800
ENDCHAR
STARTCHAR caron
ENCODING 183
SWIDTH 400 0
DWIDTH 8 0
BBX 6 3 5 11
BITMAP
84
78
20
ENDCHAR
STARTCHAR cedilla
ENCODING 184
SWIDTH 400 0
DWIDTH 8 0
BBX 3 6 2 -5
BITMAP
20
40
60
20
60
c0
ENDCHAR
STARTCHAR scaron
ENCODING 185
SWIDTH 389 0
DWIDTH 8 0
BBX 9 14 1 0
BITMAP
1080
0f00
0400
0000
1e00
2300
2100
3000
1800
1c00
0600
c600
4400
3800
ENDCHAR
STARTCHAR scedilla
ENCODING 186
SWIDTH 389 0
DWIDTH 8 0
BBX 8 16 1 -6
BITMAP
1e
23
21
30
18
1c
06
c6
44
38
08
10
18
08
18
30
ENDCHAR
STARTCHAR tcaron
ENCODING 187
SWIDTH 514 0
DWIDTH 10 0
BBX 9 16 2 0
BITMAP
0180
0180
0180
0900
1200
3000
fc00
3000
2000
6000
6000
6000
4000
c800
d000
e000
ENDCHAR
STARTCHAR zacute
ENCODING 188
SWIDTH 468 0
DWIDTH 9 0
BBX 9 15 1 0
BITMAP
0080
0180
0200
0400
0000
3f80
4300
4600
0400
0c00
1800
3080
6100
ff00
9e00
ENDCHAR
STARTCHAR doubleacute
ENCODING 189
SWIDTH 400 0
DWIDTH 8 0
BBX 5 4 4 11
BITMAP
48
58
d0
a0
ENDCHAR
STARTCHAR zcaron
ENCODING 190
SWIDTH 468 0
DWIDTH 9 0
BBX 9 14 1 0
BITMAP
1080
0f00
0400
0000
3f80
4300
4600
0400
0c00
1800
3080
6100
ff00
9e00
ENDCHAR
STARTCHAR zabovedot
ENCODING 191
SWIDTH 468 0
DWIDTH 9 0
BBX 9 13 1 0
BITMAP
0600
0600
0000
3f80
4300
4600
0400
0c00
1800
3080
6100
ff00
9e00
ENDCHAR
STARTCHAR Racute
ENCODING 192
SWIDTH 640 0
DWIDTH 12 0
BBX 12 19 1 0
BITMAP
0020
0060
0080
0100
0000
1fc0
0c60
0c30
0c30
0830
0860
18c0
1f80
18c0
18c0
30c0
30c0
30c0
f870
ENDCHAR
STARTCHAR Aacute
ENCODING 193
SWIDTH 624 0
DWIDTH 12 0
BBX 13 17 0 0
BITMAP
0010
0070
00c0
0040
00c0
0140
0160
0260
0260
0460
0460
0fe0
0860
1020
3020
2030
f0f8
ENDCHAR
STARTCHAR Acircumflex
ENCODING 194
SWIDTH 624 0
DWIDTH 12 0
BBX 13 17 0 0
BITMAP
0040
00e0
0130
0250
00c0
0140
0160
0260
0260
0460
0460
0fe0
0860
1020
3020
2030
f0f8
ENDCHAR
STARTCHAR Abreve
ENCODING 195
SWIDTH 624 0
DWIDTH 12 0
BBX 13 18 0 0
BITMAP
0210
0220
01c0
0000
00c0
00c0
0140
0140
0260
0260
0460
0460
0fe0
0860
1020
1020
2030
f0f8
ENDCHAR
STARTCHAR Adiaeresis
ENCODING 196
SWIDTH 624 0
DWIDTH 12 0
BBX 12 16 0 0
BITMAP
0330
0330
00c0
01c0
01c0
02c0
02c0
04c0
04c0
0840
0fe0
1060
1060
2060
2060
f0f0
ENDCHAR
STARTCHAR Lacute
ENCODING 197
SWIDTH 565 0
DWIDTH 11 0
BBX 11 19 1 0
BITMAP
0080
0180
0200
0400
0000
1f00
0c00
0c00
0c00
0c00
0800
1800
1800
1800
1000
3020
3020
3040
ffc0
ENDCHAR
STARTCHAR Cacute
ENCODING 198
SWIDTH 661 0
DWIDTH 13 0
BBX 13 19 2 0
BITMAP
0020
0060
0080
0100
0000
07e0
1c38
3010
6010
6000
6000
c000
c000
c000
c000
c020
6040
30c0
0f00
ENDCHAR
STARTCHAR Ccedilla
ENCODING 199
SWIDTH 661 0
DWIDTH 13 0
BBX 13 19 2 -5
BITMAP
07e0
1c38
3010
6010
6000
6000
c000
c000
c000
c000
c020
6040
30c0
0f00
0800
0c00
0400
0600
1c00
ENDCHAR
STARTCHAR Ccaron
ENCODING 200
SWIDTH 661 0
DWIDTH 13 0
BBX 13 18 2 0
BITMAP
0420
03c0
0100
0000
07e0
1c38
3010
6010
6000
6000
c000
c000
c000
c000
c020
6040
30c0
0f00
ENDCHAR
STARTCHAR Eacute
ENCODING 201
SWIDTH 596 0
DWIDTH 12 0
BBX 13 17 1 0
BITMAP
0020
00e0
0180
3ff8
0c10
0c10
0c10
1800
1820
1860
1fc0
1840
3800
3000
3020
3060
ffc0
ENDCHAR
STARTCHAR Eogonek
ENCODING 202
SWIDTH 596 0
DWIDTH 12 0
BBX 13 18 1 -4
BITMAP
3ff8
0c10
0c10
0c10
1800
1820
1860
1fc0
1840
3800
3000
3020
3060
ffc0
0200
0400
0400
0700
ENDCHAR
STARTCHAR Ediaeresis
ENCODING 203
SWIDTH 596 0
DWIDTH 12 0
BBX 13 16 1 0
BITMAP
0660
0660
3ff8
0c10
0c10
0c10
1800
1820
1860
1fc0
1840
3800
3000
3020
3060
ffc0
ENDCHAR
STARTCHAR Ecaron
ENCODING 204
SWIDTH 596 0
DWIDTH 12 0
BBX 13 18 1 0
BITMAP
0420
03c0
0100
0000
3ff8
0c10
0c10
0c10
1800
1820
1860
1fc0
1840
3800
3000
3020
3060
ffc0
ENDCHAR
STARTCHAR Iacute
ENCODING 205
SWIDTH 345 0
DWIDTH 7 0
BBX 8 17 1 0
BITMAP
01
07
0c
1f
06
0c
0c
0c
0c
18
18
18
18
10
30
30
fc
ENDCHAR
STARTCHAR Icircumflex
ENCODING 206
SWIDTH 345 0
DWIDTH 7 0
BBX 9 17 1 0
BITMAP
0200
0700
1980
3f80
0e00
0c00
0c00
0c00
0c00
1800
1800
1800
1800
1000
3000
3000
fc00
ENDCHAR
STARTCHAR Dcaron
ENCODING 207
SWIDTH 763 0
DWIDTH 15 0
BBX 15 18 1 0
BITMAP
0210
01e0
0080
0000
1fe0
0618
040c
0c06
0c06
0c06
0806
1806
180c
180c
181c
3018
3060
ff80
ENDCHAR
STARTCHAR Dstroke
ENCODING 208
SWIDTH 770 0
DWIDTH 15 0
BBX 15 14 1 0
BITMAP
1fe0
0618
040c
0c04
0c06
0c06
0c06
7f06
1806
180c
180c
1018
3070
ff80
ENDCHAR
STARTCHAR Nacute
ENCODING 209
SWIDTH 763 0
DWIDTH 15 0
BBX 16 19 1 0
BITMAP
0008
0018
0020
0040
0000
3c0f
0e06
0e04
0b04
1304
1184
1188
10c8
20c8
20e8
2070
2070
6030
f030
ENDCHAR
STARTCHAR Ncaron
ENCODING 210
SWIDTH 763 0
DWIDTH 15 0
BBX 16 18 1 0
BITMAP
0108
00f0
0040
0000
3c0f
0e06
0e04
0b04
1304
1184
1188
10c8
20c8
20e8
2070
2070
6030
f030
ENDCHAR
STARTCHAR Oacute
ENCODING 211
SWIDTH 753 0
DWIDTH 15 0
BBX 13 17 2 0
BITMAP
0020
00e0
0100
07c0
1820
3030
7018
6018
6018
c018
c018
c030
c030
c030
6060
30c0
1f00
ENDCHAR
STARTCHAR Ocircumflex
ENCODING 212
SWIDTH 753 0
DWIDTH 15 0
BBX 13 17 2 0
BITMAP
0080
01c0
0260
07e0
1820
3030
7018
6018
6018
c018
c018
c030
c030
c030
6060
30c0
1f00
ENDCHAR
STARTCHAR Odoubleacute
ENCODING 213
SWIDTH 753 0
DWIDTH 15 0
BBX 13 19 2 0
BITMAP
0120
0160
0340
0280
0000
07c0
1820
3030
7018
6018
6018
c018
c018
c030
c030
c030
6060
30c0
1f00
ENDCHAR
STARTCHAR Odiaeresis
ENCODING 214
SWIDTH 753 0
DWIDTH 15 0
BBX 13 16 2 0
BITMAP
0330
0330
03c0
0c30
3810
7018
6018
6018
c018
c018
c030
c030
c030
6060
30c0
1f80
ENDCHAR
STARTCHAR multiply
ENCODING 215
SWIDTH 570 0
DWIDTH 11 0
BBX 9 9 2 0
BITMAP
8080
4100
2200
1400
0800
1400
2200
4100
8080
ENDCHAR
STARTCHAR Rcaron
ENCODING 216
SWIDTH 640 0
DWIDTH 12 0
BBX 12 18 1 0
BITMAP
0420
03c0
0100
0000
1fc0
0c60
0c30
0c30
0830
0860
18c0
1f80
18c0
18c0
30c0
30c0
30c0
f870
ENDCHAR
STARTCHAR Uring
ENCODING 217
SWIDTH 794 0
DWIDTH 15 0
BBX 15 19 3 0
BITMAP
0180
0240
0240
0180
0000
fc7e
3018
3010
6030
6030
6030
6020
4060
c060
c060
c0c0
c0c0
6180
3e00
ENDCHAR
STARTCHAR Uacute
ENCODING 218
SWIDTH 794 0
DWIDTH 15 0
BBX 15 17 3 0
BITMAP
0020
00e0
0180
fc7e
3018
3010
6030
6030
6030
6020
4060
c060
c060
c0c0
c0c0
6180
3e00
ENDCHAR
STARTCHAR Udoubleacute
ENCODING 219
SWIDTH 794 0
DWIDTH 15 0
BBX 15 19 3 0
BITMAP
0120
0160
0340
0280
0000
fc7e
3018
3010
6030
6030
6030
6020
4060
c060
c060
c0c0
c0c0
6180
3e00
ENDCHAR
STARTCHAR Udiaeresis
ENCODING 220
SWIDTH 794 0
DWIDTH 15 0
BBX 15 16 3 0
BITMAP
0660
0660
fc7e
3018
3010
7030
6030
6030
6030
4020
c060
c060
c040
c0c0
6180
3e00
ENDCHAR
STARTCHAR Yacute
ENCODING 221
SWIDTH 591 0
DWIDTH 11 0
BBX 13 17 2 0
BITMAP
0020
00e0
0180
f878
3020
3060
3040
1880
1900
1a00
0e00
0c00
0c00
1800
1800
1800
7e00
ENDCHAR
STARTCHAR Tcedilla
ENCODING 222
SWIDTH 606 0
DWIDTH 12 0
BBX 12 20 3 -6
BITMAP
fff0
8420
8c20
0c00
0c00
0c00
1800
1800
1800
1800
1000
3000
3000
fc00
0200
0400
0600
0200
0600
0c00
ENDCHAR
STARTCHAR ssharp
ENCODING 223
SWIDTH 577 0
DWIDTH 11 0
BBX 15 19 -2 -5
BITMAP
0078
00c6
0186
0306
0f1c
0220
0660
0660
0630
0438
041c
0c0c
0c88
0cf0
0800
0800
1800
d000
6000
ENDCHAR
STARTCHAR racute
ENCODING 224
SWIDTH 402 0
DWIDTH 8 0
BBX 7 15 2 0
BITMAP
02
06
08
10
00
32
ee
30
30
60
60
40
40
c0
80
ENDCHAR
STARTCHAR aacute
ENCODING 225
SWIDTH 561 0
DWIDTH 11 0
BBX 10 14 1 0
BITMAP
00c0
0180
0200
0000
07c0
18c0
3080
6180
6180
c380
c300
c740
cb40
7380
ENDCHAR
STARTCHAR acircumflex
ENCODING 226
SWIDTH 561 0
DWIDTH 11 0
BBX 10 14 1 0
BITMAP
0100
0380
0cc0
0000
07c0
18c0
3080
6180
6180
c380
c300
c740
cb40
7380
ENDCHAR
STARTCHAR abreve
ENCODING 227
SWIDTH 561 0
DWIDTH 11 0
BBX 10 14 1 0
BITMAP
0840
0880
0700
0000
07c0
18c0
3080
6180
6180
c380
c300
c740
cb40
7380
ENDCHAR
STARTCHAR adiaeresis
ENCODING 228
SWIDTH 561 0
DWIDTH 11 0
BBX 10 13 1 0
BITMAP
0cc0
0cc0
0000
07c0
18c0
3080
6180
6180
c380
c300
c740
cb40
7380
ENDCHAR
STARTCHAR lacute
ENCODING 229
SWIDTH 306 0
DWIDTH 6 0
BBX 7 19 2 0
BITMAP
02
06
08
10
00
18
78
18
10
30
30
20
20
60
60
40
c8
d0
e0
ENDCHAR
STARTCHAR cacute
ENCODING 230
SWIDTH 441 0
DWIDTH 9 0
BBX 9 15 2 0
BITMAP
0080
0180
0200
0400
0000
0e00
3300
6300
6000
c000
c000
c000
c200
c400
7800
ENDCHAR
STARTCHAR ccedilla
ENCODING 231
SWIDTH 441 0
DWIDTH 9 0
BBX 8 15 2 -5
BITMAP
0e
33
63
60
c0
c0
c0
c2
c4
78
20
30
10
10
60
ENDCHAR
STARTCHAR ccaron
ENCODING 232
SWIDTH 441 0
DWIDTH 9 0
BBX 9 14 2 0
BITMAP
1080
0f00
0400
0000
0e00
3300
6300
6000
c000
c000
c000
c200
c400
7800
ENDCHAR
STARTCHAR eacute
ENCODING 233
SWIDTH 453 0
DWIDTH 9 0
BBX 8 14 2 0
BITMAP
03
06
0c
00
0e
13
23
62
cc
f0
c0
c2
c4
78
ENDCHAR
STARTCHAR eogonek
ENCODING 234
SWIDTH 453 0
DWIDTH 9 0
BBX 8 14 2 -4
BITMAP
0e
13
23
62
cc
f0
c0
c2
c4
78
10
20
20
38
ENDCHAR
STARTCHAR ediaeresis
ENCODING 235
SWIDTH 453 0
DWIDTH 9 0
BBX 8 13 2 0
BITMAP
33
33
00
0e
33
23
46
cc
f0
c0
c2
cc
70
ENDCHAR
STARTCHAR ecaron
ENCODING 236
SWIDTH 453 0
DWIDTH 9 0
BBX 9 14 2 0
BITMAP
1080
0f00
0400
0000
0e00
1300
2300
6200
cc00
f000
c000
c200
c400
7800
ENDCHAR
STARTCHAR iacute
ENCODING 237
SWIDTH 317 0
DWIDTH 6 0
BBX 6 14 2 0
BITMAP
0c
18
20
00
30
f0
30
20
60
60
40
c8
d0
e0
ENDCHAR
STARTCHAR icircumflex
ENCODING 238
SWIDTH 317 0
DWIDTH 6 0
BBX 6 14 2 0
BITMAP
10
38
4c
80
30
f0
30
20
60
60
40
c8
d0
e0
ENDCHAR
STARTCHAR dcaron
ENCODING 239
SWIDTH 771 0
DWIDTH 15 0
BBX 16 15 1 0
BITMAP
0003
0033
00f3
0022
0064
07e0
1c60
3040
60c0
60c0
c1c0
c280
c3a0
cda0
71c0
ENDCHAR
STARTCHAR dstroke
ENCODING 240
SWIDTH 720 0
DWIDTH 14 0
BBX 15 14 1 0
BITMAP
0030
0010
03fe
0060
07e0
1c60
3040
60c0
60c0
c1c0
c280
c3a0
cda0
71c0
ENDCHAR
STARTCHAR nacute
ENCODING 241
SWIDTH 618 0
DWIDTH 12 0
BBX 10 15 2 0
BITMAP
0080
0180
0200
0400
0000
1380
74c0
38c0
2880
3180
6180
6100
6340
4340
c380
ENDCHAR
STARTCHAR ncaron
ENCODING 242
SWIDTH 618 0
DWIDTH 12 0
BBX 10 14 2 0
BITMAP
1080
0f00
0400
0000
1380
74c0
38c0
2880
3180
6180
6100
6340
4340
c380
ENDCHAR
STARTCHAR oacute
ENCODING 243
SWIDTH 537 0
DWIDTH 10 0
BBX 9 14 2 0
BITMAP
0180
0300
0c00
0000
0e00
3100
6180
6180
e180
c380
c300
c300
4600
3800
ENDCHAR
STARTCHAR ocircumflex
ENCODING 244
SWIDTH 537 0
DWIDTH 10 0
BBX 9 14 2 0
BITMAP
0200
0600
1980
0000
0e00
3100
6180
6180
e180
c380
c300
c300
4600
3800
ENDCHAR
STARTCHAR odoubleacute
ENCODING 245
SWIDTH 537 0
DWIDTH 10 0
BBX 9 15 2 0
BITMAP
0480
0580
0d00
0a00
0000
0e00
3100
6180
6180
e180
c380
c300
c300
4600
3800
ENDCHAR
STARTCHAR odiaeresis
ENCODING 246
SWIDTH 537 0
DWIDTH 10 0
BBX 9 13 2 0
BITMAP
1980
1980
0000
1e00
3100
6180
6180
c180
c380
c300
c300
4600
3800
ENDCHAR
STARTCHAR division
ENCODING 247
SWIDTH 570 0
DWIDTH 11 0
BBX 9 9 2 1
BITMAP
1800
1800
0000
0000
ff80
0000
0000
1800
1800
ENDCHAR
STARTCHAR rcaron
ENCODING 248
SWIDTH 402 0
DWIDTH 8 0
BBX 7 14 2 0
BITMAP
42
3c
10
00
32
ee
30
30
60
60
40
40
c0
80
ENDCHAR
STARTCHAR uring
ENCODING 249
SWIDTH 618 0
DWIDTH 12 0
BBX 11 15 2 0
BITMAP
0600
0900
0900
0600
0000
3040
f0c0
2080
6180
6180
6380
4300
c720
cb40
f380
ENDCHAR
STARTCHAR uacute
ENCODING 250
SWIDTH 618 0
DWIDTH 12 0
BBX 11 14 2 0
BITMAP
0180
0300
0600
0000
3040
f0c0
2080
6180
6180
6380
4300
c720
cb40
f380
ENDCHAR
STARTCHAR udoubleacute
ENCODING 251
SWIDTH 618 0
DWIDTH 12 0
BBX 11 15 2 0
BITMAP
0480
0580
0d00
0a00
0000
3040
f0c0
2080
6180
6180
6380
4300
c720
cb40
f380
ENDCHAR
STARTCHAR udiaeresis
ENCODING 252
SWIDTH 618 0
DWIDTH 12 0
BBX 11 13 2 0
BITMAP
18c0
18c0
0000
3040
f0c0
20c0
6180
6180
6380
4300
c720
cb40
f380
ENDCHAR
STARTCHAR yacute
ENCODING 253
SWIDTH 468 0
DWIDTH 9 0
BBX 11 19 0 -5
BITMAP
0060
00c0
0300
0000
1820
7860
1860
0840
08c0
0c80
0d00
0d00
0e00
0e00
0c00
0800
0800
d000
e000
ENDCHAR
STARTCHAR tcedilla
ENCODING 254
SWIDTH 341 0
DWIDTH 7 0
BBX 6 19 2 -6
BITMAP
08
10
30
fc
30
20
60
60
60
40
c8
d0
e0
10
20
30
10
30
60
ENDCHAR
STARTCHAR abovedot
ENCODING 255
SWIDTH 402 0
DWIDTH 8 0
BBX 2 2 6 11
BITMAP
c0
c0
ENDCHAR
ENDFONT
